<svg width="84" height="84" viewBox="0 0 84 84" fill="none" xmlns="http://www.w3.org/2000/svg">
<circle cx="42" cy="42.274" r="41.5" fill="white"/>
<circle cx="42" cy="42.274" r="41.5" fill="black" fill-opacity="0.08"/>
<path d="M33.2773 43.3482H29.6543L29.6348 41.5611H32.7988C33.3327 41.5611 33.7852 41.483 34.1562 41.3267C34.5339 41.164 34.8203 40.9328 35.0156 40.6334C35.2109 40.3274 35.3086 39.9595 35.3086 39.5298C35.3086 39.0546 35.2174 38.6672 35.0352 38.3677C34.8529 38.0683 34.5729 37.8502 34.1953 37.7134C33.8242 37.5767 33.349 37.5084 32.7695 37.5084H30.3965V49.774H27.9453V35.5552H32.7695C33.5508 35.5552 34.2474 35.6301 34.8594 35.7798C35.4779 35.9296 36.002 36.164 36.4316 36.483C36.8678 36.7955 37.1966 37.1926 37.418 37.6744C37.6458 38.1561 37.7598 38.7291 37.7598 39.3931C37.7598 39.9791 37.6198 40.5162 37.3398 41.0045C37.0599 41.4862 36.6465 41.8801 36.0996 42.1861C35.5527 42.4921 34.8724 42.6744 34.0586 42.733L33.2773 43.3482ZM33.1699 49.774H28.8828L29.9863 47.8306H33.1699C33.7233 47.8306 34.1855 47.7395 34.5566 47.5572C34.9277 47.3684 35.2044 47.1112 35.3867 46.7857C35.5755 46.4537 35.6699 46.0663 35.6699 45.6236C35.6699 45.1614 35.5885 44.761 35.4258 44.4224C35.263 44.0774 35.0059 43.8137 34.6543 43.6314C34.3027 43.4426 33.8438 43.3482 33.2773 43.3482H30.5234L30.543 41.5611H34.127L34.6836 42.2349C35.4648 42.261 36.1061 42.4335 36.6074 42.7525C37.1152 43.0715 37.4928 43.4849 37.7402 43.9927C37.9876 44.5005 38.1113 45.0474 38.1113 45.6334C38.1113 46.5383 37.9128 47.2968 37.5156 47.9088C37.125 48.5207 36.5618 48.9862 35.8262 49.3052C35.0905 49.6177 34.2051 49.774 33.1699 49.774ZM41.7281 35.5552H43.9156L48.027 46.522L52.1285 35.5552H54.316L48.8863 49.774H47.148L41.7281 35.5552ZM40.732 35.5552H42.8121L43.1734 45.0474V49.774H40.732V35.5552ZM53.232 35.5552H55.3219V49.774H52.8707V45.0474L53.232 35.5552Z" fill="black"/>
</svg>
